<svg width="5670" height="2404" viewBox="0 0 5670 2404" fill="none" xmlns="http://www.w3.org/2000/svg">
<g filter="url(#filter0_f_26_126)">
<path d="M3786.02 2098.7C4581.74 2142.5 5287.96 1866.45 5363.4 1482.13C5438.84 1097.81 4854.94 750.757 4059.23 706.963C3263.51 663.169 2557.29 939.218 2481.85 1323.54C2406.41 1707.86 2990.31 2054.91 3786.02 2098.7Z" fill="#4D3589"/>
</g>
<g filter="url(#filter1_f_26_126)">
<path d="M1516.67 1374.26C2248.82 1488.91 2955.95 1378.44 3096.1 1127.52C3236.25 876.598 2756.34 580.243 2024.19 465.592C1292.04 350.942 584.908 461.413 444.76 712.336C304.612 963.259 784.522 1259.61 1516.67 1374.26Z" fill="#0025CE"/>
</g>
<g filter="url(#filter2_f_26_126)">
<path d="M2755.48 1048.43C1582.2 950.535 1334.41 341.91 920.829 336.083C400.928 328.758 388.644 886.169 767.015 1119.63C1213.01 1394.83 3550.59 1114.77 2755.48 1048.43Z" fill="#00EAFF"/>
</g>
<g filter="url(#filter3_f_26_126)">
<path d="M1481.35 1021.77C1119.02 1001.83 928.677 1094.48 901.671 1232.05C845.321 1519.11 4023.6 1797.2 4554.93 1584.46C4945.4 1428.12 4948.39 1177.88 4590.48 1069.26C4185.97 946.515 4210.4 926.014 3778.41 981.669C3417.95 1028.11 3004.59 1110.69 2611.79 1144.96C2244.13 1177.04 1803.18 1039.49 1481.35 1021.77Z" fill="#BADAFF"/>
</g>
<defs>
<filter id="filter0_f_26_126" x="2175.29" y="402.395" width="3494.67" height="2000.88" filterUnits="userSpaceOnUse" color-interpolation-filters="sRGB">
<feFlood flood-opacity="0" result="BackgroundImageFix"/>
<feBlend mode="normal" in="SourceGraphic" in2="BackgroundImageFix" result="shape"/>
<feGaussianBlur stdDeviation="150" result="effect1_foregroundBlur_26_126"/>
</filter>
<filter id="filter1_f_26_126" x="0.442871" y="0.291199" width="3539.97" height="1839.27" filterUnits="userSpaceOnUse" color-interpolation-filters="sRGB">
<feFlood flood-opacity="0" result="BackgroundImageFix"/>
<feBlend mode="normal" in="SourceGraphic" in2="BackgroundImageFix" result="shape"/>
<feGaussianBlur stdDeviation="210" result="effect1_foregroundBlur_26_126"/>
</filter>
<filter id="filter2_f_26_126" x="184.179" y="16.0117" width="3054.91" height="1542.44" filterUnits="userSpaceOnUse" color-interpolation-filters="sRGB">
<feFlood flood-opacity="0" result="BackgroundImageFix"/>
<feBlend mode="normal" in="SourceGraphic" in2="BackgroundImageFix" result="shape"/>
<feGaussianBlur stdDeviation="160" result="effect1_foregroundBlur_26_126"/>
</filter>
<filter id="filter3_f_26_126" x="580.931" y="632.331" width="4592.6" height="1347.2" filterUnits="userSpaceOnUse" color-interpolation-filters="sRGB">
<feFlood flood-opacity="0" result="BackgroundImageFix"/>
<feBlend mode="normal" in="SourceGraphic" in2="BackgroundImageFix" result="shape"/>
<feGaussianBlur stdDeviation="160" result="effect1_foregroundBlur_26_126"/>
</filter>
</defs>
</svg>
