<svg width="5879" height="2420" viewBox="0 0 5879 2420" fill="none" xmlns="http://www.w3.org/2000/svg">
<path d="M4709.33 380.909H1172.52C977.186 380.909 818.837 451.952 818.837 539.587V1576.28C818.837 1663.92 977.186 1734.96 1172.52 1734.96H4709.33C4904.66 1734.96 5063.01 1663.92 5063.01 1576.28V539.587C5063.01 451.952 4904.66 380.909 4709.33 380.909Z" fill="#0D0A2C"/>
<g filter="url(#filter0_f_26_137)">
<path d="M4593.03 1399.07C4663.71 1678.16 3989.97 1941.66 3088.24 1987.63C2186.5 2033.59 1213.72 1261.66 1143.05 982.563C1072.37 703.468 2009.71 1378.27 2911.45 1332.32C3813.19 1286.36 4522.35 1119.97 4593.03 1399.07Z" fill="#8349FF"/>
</g>
<g filter="url(#filter1_f_26_137)">
<path d="M1958.06 1537.08C1696.35 1405.57 1681.39 1305.19 1550.79 1151.03C1298.7 853.448 1484.37 658.02 1184.74 366.032C573.361 -229.753 -483.862 1645.66 1019.89 1988.49C1965.2 2203.99 4731.32 2255.65 3897.42 1988.49C3564.41 1881.78 3245.67 1893.04 2869.57 1806.21C2481.42 1716.58 2225.14 1671.29 1958.06 1537.08Z" fill="url(#paint0_linear_26_137)"/>
</g>
<g filter="url(#filter2_f_26_137)">
<path d="M4311.47 1260.8C3893.33 1276.07 3619.75 1357.25 3352.66 1545.32C2811.57 1926.33 5951.31 2040.19 5517.76 1623.84C5244.39 1361.33 4845.56 1241.3 4311.47 1260.8Z" fill="#0011E0"/>
</g>
<g filter="url(#filter3_f_26_137)">
<path d="M4323.26 1511.85C3975.76 1522.1 3748.94 1579.66 3528.33 1713.55C3081.4 1984.81 5692.59 2070.99 5328.95 1772.98C5099.64 1585.08 4767.16 1498.74 4323.26 1511.85Z" fill="#00F0FF"/>
</g>
<defs>
<filter id="filter0_f_26_137" x="819.283" y="594.689" width="4098.83" height="1714.91" filterUnits="userSpaceOnUse" color-interpolation-filters="sRGB">
<feFlood flood-opacity="0" result="BackgroundImageFix"/>
<feBlend mode="normal" in="SourceGraphic" in2="BackgroundImageFix" result="shape"/>
<feGaussianBlur stdDeviation="160" result="effect1_foregroundBlur_26_137"/>
</filter>
<filter id="filter1_f_26_137" x="0" y="0" width="4302.06" height="2420" filterUnits="userSpaceOnUse" color-interpolation-filters="sRGB">
<feFlood flood-opacity="0" result="BackgroundImageFix"/>
<feBlend mode="normal" in="SourceGraphic" in2="BackgroundImageFix" result="shape"/>
<feGaussianBlur stdDeviation="125" result="effect1_foregroundBlur_26_137"/>
</filter>
<filter id="filter2_f_26_137" x="2969.75" y="938.76" width="2909.25" height="1269.13" filterUnits="userSpaceOnUse" color-interpolation-filters="sRGB">
<feFlood flood-opacity="0" result="BackgroundImageFix"/>
<feBlend mode="normal" in="SourceGraphic" in2="BackgroundImageFix" result="shape"/>
<feGaussianBlur stdDeviation="160" result="effect1_foregroundBlur_26_137"/>
</filter>
<filter id="filter3_f_26_137" x="3156.69" y="1190.55" width="2527.12" height="1089.63" filterUnits="userSpaceOnUse" color-interpolation-filters="sRGB">
<feFlood flood-opacity="0" result="BackgroundImageFix"/>
<feBlend mode="normal" in="SourceGraphic" in2="BackgroundImageFix" result="shape"/>
<feGaussianBlur stdDeviation="160" result="effect1_foregroundBlur_26_137"/>
</filter>
<linearGradient id="paint0_linear_26_137" x1="1441.71" y1="912.007" x2="1574.18" y2="1994.56" gradientUnits="userSpaceOnUse">
<stop stop-color="#FF1FA2"/>
<stop offset="1" stop-color="#FFC0FF"/>
</linearGradient>
</defs>
</svg>
