<svg width="6349" height="2960" viewBox="0 0 6349 2960" fill="none" xmlns="http://www.w3.org/2000/svg">
<g filter="url(#filter0_f_26_94)">
<path d="M2842.25 1452.53C3753.04 1173.54 4672.64 645.526 5043.61 621.36C5707.83 578.092 5610.69 1579.12 4908.25 1936.85C4249.09 2272.52 -326.262 2616.17 796.501 1936.85C1393.83 1575.44 2067.13 1689.95 2842.25 1452.53Z" fill="#35088A"/>
</g>
<g filter="url(#filter1_f_26_94)">
<path d="M3442.47 1750.76C4297.12 1499.2 5160.02 1023.09 5508.15 1001.3C6131.41 962.287 6040.26 1864.91 5381.12 2187.46C4762.61 2490.14 469.28 2800 1522.83 2187.46C2083.34 1861.58 2715.13 1964.84 3442.47 1750.76Z" fill="#E406B5"/>
</g>
<g filter="url(#filter2_f_26_94)">
<path d="M2532.85 2397.19C2336.03 2298.08 3828.51 1504.44 4738.91 1190.71C5649.32 876.982 5447.41 1512.09 4660.53 1871.73C4005.6 2171.06 2729.67 2496.29 2532.85 2397.19Z" fill="#FF99A2"/>
</g>
<defs>
<filter id="filter0_f_26_94" x="0" y="0" width="6112.12" height="2947.82" filterUnits="userSpaceOnUse" color-interpolation-filters="sRGB">
<feFlood flood-opacity="0" result="BackgroundImageFix"/>
<feBlend mode="normal" in="SourceGraphic" in2="BackgroundImageFix" result="shape"/>
<feGaussianBlur stdDeviation="310" result="effect1_foregroundBlur_26_94"/>
</filter>
<filter id="filter1_f_26_94" x="937.211" y="580.075" width="5411.79" height="2379.92" filterUnits="userSpaceOnUse" color-interpolation-filters="sRGB">
<feFlood flood-opacity="0" result="BackgroundImageFix"/>
<feBlend mode="normal" in="SourceGraphic" in2="BackgroundImageFix" result="shape"/>
<feGaussianBlur stdDeviation="210" result="effect1_foregroundBlur_26_94"/>
</filter>
<filter id="filter2_f_26_94" x="2195.17" y="786.239" width="3465.34" height="1949.11" filterUnits="userSpaceOnUse" color-interpolation-filters="sRGB">
<feFlood flood-opacity="0" result="BackgroundImageFix"/>
<feBlend mode="normal" in="SourceGraphic" in2="BackgroundImageFix" result="shape"/>
<feGaussianBlur stdDeviation="160" result="effect1_foregroundBlur_26_94"/>
</filter>
</defs>
</svg>
