<svg width="7439" height="2981" viewBox="0 0 7439 2981" fill="none" xmlns="http://www.w3.org/2000/svg">
<g filter="url(#filter0_f_26_113)">
<path d="M1761.81 1949.5C1070.45 1858.35 561.851 1509.46 625.813 1170.23C689.775 830.999 1302.08 629.892 1993.43 721.041C2684.79 812.191 3193.39 1161.08 3129.43 1500.31C3065.47 1839.54 2453.16 2040.65 1761.81 1949.5Z" fill="#0035FF"/>
</g>
<g filter="url(#filter1_f_26_113)">
<path d="M1751.12 1514.11C1427.49 1514.11 1165.13 1314.04 1165.13 1067.24C1165.13 820.447 1427.49 620.379 1751.12 620.379C2074.76 620.379 2337.11 820.447 2337.11 1067.24C2337.11 1314.04 2074.76 1514.11 1751.12 1514.11Z" fill="#1AC7FF"/>
</g>
<g filter="url(#filter2_f_26_113)">
<path d="M4759.8 2428.89C3622.53 2428.89 2700.59 2024.01 2700.59 1524.57C2700.59 1025.13 3622.53 620.255 4759.8 620.255C5897.06 620.255 6819 1025.13 6819 1524.57C6819 2024.01 5897.06 2428.89 4759.8 2428.89Z" fill="#001C80"/>
</g>
<g filter="url(#filter3_f_26_113)">
<path d="M2691.4 2355.51C2157.45 2422.06 1673.22 2187.7 1609.83 1832.07C1546.45 1476.44 1927.92 1134.2 2461.86 1067.65C2995.81 1001.11 3480.04 1235.46 3543.43 1591.1C3606.81 1946.73 3225.34 2288.97 2691.4 2355.51Z" fill="#FF1FF1"/>
</g>
<g filter="url(#filter4_f_26_113)">
<path d="M3473.71 2320.73C3046.89 2320.73 2700.89 2116.14 2700.89 1863.77C2700.89 1611.4 3046.89 1406.81 3473.71 1406.81C3900.52 1406.81 4246.53 1611.4 4246.53 1863.77C4246.53 2116.14 3900.52 2320.73 3473.71 2320.73Z" fill="#04FFB1"/>
</g>
<defs>
<filter id="filter0_f_26_113" x="0.383789" y="79.0966" width="3754.48" height="2512.35" filterUnits="userSpaceOnUse" color-interpolation-filters="sRGB">
<feFlood flood-opacity="0" result="BackgroundImageFix"/>
<feBlend mode="normal" in="SourceGraphic" in2="BackgroundImageFix" result="shape"/>
<feGaussianBlur stdDeviation="310" result="effect1_foregroundBlur_26_113"/>
</filter>
<filter id="filter1_f_26_113" x="745.128" y="200.379" width="2011.98" height="1733.73" filterUnits="userSpaceOnUse" color-interpolation-filters="sRGB">
<feFlood flood-opacity="0" result="BackgroundImageFix"/>
<feBlend mode="normal" in="SourceGraphic" in2="BackgroundImageFix" result="shape"/>
<feGaussianBlur stdDeviation="210" result="effect1_foregroundBlur_26_113"/>
</filter>
<filter id="filter2_f_26_113" x="2080.59" y="0.255371" width="5358.41" height="3048.64" filterUnits="userSpaceOnUse" color-interpolation-filters="sRGB">
<feFlood flood-opacity="0" result="BackgroundImageFix"/>
<feBlend mode="normal" in="SourceGraphic" in2="BackgroundImageFix" result="shape"/>
<feGaussianBlur stdDeviation="310" result="effect1_foregroundBlur_26_113"/>
</filter>
<filter id="filter3_f_26_113" x="1182.95" y="636.362" width="2787.36" height="2150.44" filterUnits="userSpaceOnUse" color-interpolation-filters="sRGB">
<feFlood flood-opacity="0" result="BackgroundImageFix"/>
<feBlend mode="normal" in="SourceGraphic" in2="BackgroundImageFix" result="shape"/>
<feGaussianBlur stdDeviation="210" result="effect1_foregroundBlur_26_113"/>
</filter>
<filter id="filter4_f_26_113" x="2280.89" y="986.809" width="2385.64" height="1753.92" filterUnits="userSpaceOnUse" color-interpolation-filters="sRGB">
<feFlood flood-opacity="0" result="BackgroundImageFix"/>
<feBlend mode="normal" in="SourceGraphic" in2="BackgroundImageFix" result="shape"/>
<feGaussianBlur stdDeviation="210" result="effect1_foregroundBlur_26_113"/>
</filter>
</defs>
</svg>
